<svg xmlns="http://www.w3.org/2000/svg" width="375" viewBox="0 0 375 375" height="375" version="1.0"><defs><clipPath id="a"><path d="M 100.050781 37.5 L 265.050781 37.5 L 265.050781 255 L 100.050781 255 Z M 100.050781 37.5"/></clipPath></defs><g clip-path="url(#a)"><path transform="matrix(.0133 0 0 -.01332 100.673 255.008)" fill="none" d="M 3476.864524 1823.336512 C 3733.863988 2502.365962 3991.157166 3181.395413 4299.850236 3500.386795 C 4608.543306 3819.378178 4968.636269 3778.038302 5709.382152 3413.015994 C 6450.128035 3047.700495 7571.820552 2358.409373 8189.206693 1581.454259 C 8806.592833 804.499146 8919.672597 -59.533579 9022.472383 32.821463 C 9125.272169 125.469695 9218.085689 1175.092075 9253.918757 2049.679662 C 9290.045539 2924.267249 9269.485582 3623.820042 9073.872276 3855.440623 C 8878.552683 4086.768013 8508.179742 3850.163192 8467.059827 3310.10609 C 8425.6462 2769.755798 8713.779313 1926.246416 9001.912426 1792.258307 C 9290.045539 1658.56339 9578.178652 2234.682936 9711.818373 2610.260106 C 9845.751808 2985.837276 9825.191851 3160.87207 9794.351915 3490.125124 C 9763.218266 3819.378178 9722.098352 4302.849492 9825.191851 4554.993416 C 9927.991637 4807.137339 10175.004836 4827.660682 10154.151165 4801.859908 C 10133.884921 4776.352325 9845.751808 4704.227436 9233.3588 4771.074895 C 8621.259506 4837.922353 7684.900316 5043.742161 7067.514176 5362.733543 C 6450.128035 5681.724926 6152.008657 6113.887884 5755.788913 6381.277719 C 5359.569168 6648.960745 4865.836484 6751.870649 4598.263328 7024.244725 C 4330.690172 7296.911991 4289.570257 7739.33662 4124.796887 7816.738941 C 3960.31723 7893.848071 3672.184117 7605.641702 3610.504246 7261.142737 C 3548.824374 6916.35058 3713.304031 6514.972637 4052.837037 6278.367815 C 4392.370043 6041.762994 4906.956398 5969.638104 5215.649468 6062.286336 C 5524.342538 6154.934569 5627.142324 6412.062733 5529.335671 6587.097527 C 5431.529018 6762.13232 5133.115926 6854.487362 4986.846517 7038.611064 C 4840.283394 7222.734767 4845.57024 7498.040749 4675.803737 7734.64557 C 4506.037234 7971.250392 4161.217382 8169.154053 3849.880889 8088.233445 C 3538.544396 8007.019646 3260.691261 7646.981578 3306.804308 7225.080292 C 3353.211068 6803.179005 3723.58401 6319.707691 3913.91047 5681.724926 C 4104.23693 5043.742161 4114.516908 4251.541135 4176.490493 4025.197985 C 4238.170365 3798.854835 4351.250129 4138.36956 4078.68384 4570.532518 C 3805.823838 5002.695476 3147.611497 5527.213475 2571.345271 6052.024665 C 1995.079044 6576.835855 1501.34636 7101.647045 1244.053183 7631.442476 C 986.760005 8161.237906 966.200048 8696.310768 791.146699 9005.040479 C 616.387064 9313.77019 287.134036 9396.156751 132.640644 9817.764847 C -21.559034 10239.666133 -0.999077 11001.082145 163.774294 11608.279896 C 328.253951 12215.184457 636.947021 12667.870757 1233.773204 13069.2487 C 1830.599388 13470.626644 2715.26497 13820.403041 3132.044672 13887.2505 C 3548.824374 13954.097958 3497.424481 13738.01648 3075.357933 13645.368247 C 2653.585099 13552.720015 1861.439323 13583.798219 1418.812818 13408.763426 C 976.480027 13234.021823 883.96022 12853.167222 899.233331 12909.753009 C 914.800155 12966.338797 1038.159898 13460.071782 1403.539707 13830.664712 C 1768.625803 14200.964451 2375.731965 14448.124135 2864.471516 14535.494936 C 3353.211068 14622.865737 3723.58401 14551.034038 3913.91047 14756.560655 C 4104.23693 14962.380463 4114.516908 15446.144967 4484.88985 15780.382262 C 4855.556505 16114.912747 5586.02241 16299.916021 6105.601897 16222.806891 C 6625.181385 16145.697761 6933.874455 15806.183035 7222.007568 15353.496735 C 7510.140681 14900.810435 7777.420123 14334.952559 8044.993279 14185.718539 C 8312.566436 14036.48452 8580.139592 14303.874355 8435.926178 14699.974868 C 8292.006478 15096.07538 7736.300209 15620.88657 7443.173964 15852.507152 C 7150.047718 16083.834542 7119.207782 16022.264514 6748.541127 15893.553837 C 6378.168186 15765.13635 5668.262238 15569.578214 5297.889297 14982.903805 C 4927.516355 14396.522587 4896.676419 13419.025097 4356.536975 12868.706324 C 3816.39753 12318.09436 2766.664863 12194.661114 2108.158809 11788.29893 C 1449.652754 11381.936746 1182.373311 10692.352433 1192.65329 10671.829091 C 1202.933269 10651.305748 1491.066382 11299.550185 2020.925848 11525.893335 C 2550.785314 11752.236485 3322.371132 11556.678349 4058.123883 11639.06491 C 4793.876634 11721.451471 5493.502603 12081.489539 5925.555416 12539.45327 C 6357.608228 12997.123811 6522.381599 13552.720015 6820.794691 13660.907349 C 7119.207782 13768.801494 7551.260595 13429.286768 7872.877067 13393.224323 C 8194.199825 13357.161879 8405.086243 13624.844905 8587.776147 13699.315319 C 8770.466052 13774.078924 8924.959444 13655.629918 9161.39895 13390.878799 C 9398.132171 13125.834488 9717.105219 12714.194873 9971.754974 12441.527607 C 10226.404728 12168.86034 10416.731188 12035.165423 10506.901286 11914.370892 C 10596.77767 11793.28317 10586.497691 11685.389026 10514.537842 11554.332824 C 10442.577992 11422.983431 10308.644557 11268.47198 10259.888087 11312.450571 C 10211.131617 11356.135972 10246.964685 11598.018225 10316.281112 11736.697383 C 10385.891253 11875.669731 10488.691038 11911.732176 10509.250995 11754.8752 C 10529.810952 11598.018225 10468.131081 11248.241828 10517.181265 11037.14459 C 10565.937734 10826.047351 10725.424259 10754.215652 10856.71427 10756.854367 C 10987.710569 10759.199892 11090.804068 10836.602213 11034.117329 10818.424395 C 10977.43059 10800.539768 10761.257327 10687.368193 10589.141114 10687.368193 C 10416.731188 10687.368193 10288.0846 10800.539768 10254.601241 10900.810956 C 10221.117882 11001.082145 10283.091467 11088.746137 10377.960984 10983.197518 C 10473.417927 10877.648898 10601.770802 10579.180858 10825.580621 10329.67565 C 11049.39044 10080.170442 11368.657202 9879.628065 11574.256773 9720.132374 C 11779.856344 9560.636683 11872.669865 9442.187677 11846.823062 9272.430314 C 11821.269972 9102.672952 11677.056559 8881.607232 11540.773415 8760.812702 C 11404.49027 8639.72498 11275.843682 8619.201637 11306.683617 8660.248323 C 11337.523553 8701.588199 11527.850013 8804.498102 11576.900196 8889.230188 C 11625.656666 8974.255465 11533.136859 9041.102924 11404.49027 9005.040479 C 11275.843682 8968.978034 11111.364025 8830.005685 10962.157479 8688.687812 C 10812.950933 8547.076748 10679.017498 8403.120159 10550.37091 8446.805559 C 10422.018035 8490.49096 10298.364578 8722.111541 10288.0846 8915.030962 C 10277.804621 9107.950383 10380.604407 9262.168643 10501.61444 9362.439831 C 10622.624473 9463.00421 10761.257327 9509.328326 10805.020664 9480.888837 C 10848.784001 9452.742539 10797.384109 9349.832635 10740.69737 9388.240605 C 10684.304344 9426.941765 10622.624473 9606.960799 10437.291146 9840.926905 C 10252.251532 10075.186202 9943.558461 10363.09938 9768.505112 10671.829091 C 9593.451763 10980.558802 9552.331849 11309.811856 9596.095186 11376.659315 C 9639.858524 11443.506774 9768.505112 11248.241828 9580.822075 11134.777062 C 9392.845325 11021.605487 8888.832662 10990.820473 8430.933046 10754.215652 C 7973.03343 10517.610831 7561.540574 10075.186202 7373.857537 10021.23913 C 7185.880786 9966.998867 7222.007568 10301.529352 7561.540574 10635.766646 C 7901.07358 10970.297131 8544.01281 11304.827616 8917.029174 11381.936746 C 9290.045539 11459.045876 9392.845325 11279.026842 9372.285367 11088.746137 C 9351.72541 10898.172241 9207.805711 10697.629864 9179.609198 10556.0188 C 9151.118972 10414.700927 9238.645646 10332.314366 9328.52203 10314.429739 C 9418.692128 10296.251921 9511.211935 10342.576037 9428.972106 10319.413979 C 9346.732278 10296.251921 9089.4391 10203.603688 8798.662564 10064.92453 C 8508.179742 9925.952182 8183.919847 9740.655717 8155.723334 9756.194819 C 8127.526822 9771.440731 8394.806264 9987.522209 8610.979527 10136.756229 C 8827.152791 10285.990249 8991.632447 10368.376811 9092.082523 10342.576037 C 9192.238886 10316.775263 9228.365668 10183.080346 9194.882309 10072.547486 C 9161.39895 9962.014627 9058.599165 9874.350634 8981.352469 9876.98935 C 8904.105773 9879.628065 8852.70588 9972.276298 8917.029174 10049.385428 C 8981.352469 10126.494558 9161.39895 10188.357777 9231.009091 10178.096105 C 9300.325518 10167.834434 9259.205603 10085.447873 9287.402116 10049.385428 C 9315.892342 10013.322983 9413.405282 10023.584654 9349.375701 9943.836809 C 9285.052407 9864.088963 9058.599165 9694.331601 8742.269539 9617.22247 C 8425.939913 9540.11334 8019.44019 9555.359252 7445.817387 9444.826392 C 6872.194583 9334.293533 6131.4487 9097.688711 5722.305554 8758.173986 C 5313.456121 8418.659261 5236.209425 7976.234632 5112.849683 7693.305694 C 4989.196226 7410.083566 4819.429723 7286.65032 4806.506322 7477.224215 C 4793.876634 7667.504921 4937.796334 8171.499577 5230.922579 8521.569165 C 5524.342538 8871.345561 5966.67533 9066.903697 6563.501513 8963.993794 C 7160.327697 8861.08389 7911.353558 8459.705946 8245.599718 7978.580157 C 8580.139592 7497.747558 8497.899763 6936.873923 8129.876531 6852.141837 C 7762.147012 6767.11656 7108.927804 7158.232833 7005.834305 7515.632185 C 6903.034519 7873.324728 7350.654157 8197.300351 7934.556938 7778.03778 C 8518.45972 7358.775209 9238.645646 6195.981254 9891.864855 5591.715409 C 10545.377777 4987.156373 11131.923982 4940.832257 11497.010077 4997.418045 C 11862.389887 5054.003832 12006.309586 5213.499523 12114.396218 5362.733543 C 12222.48285 5511.967563 12294.442699 5650.939912 12315.002657 5820.697275 C 12335.562614 5990.454637 12304.722678 6190.997014 12171.082957 6268.106144 C 12037.149522 6345.215274 11800.710015 6298.891158 11651.503469 6144.672898 C 11502.296924 5990.454637 11440.617052 5728.049042 11551.053393 5589.076694 C 11661.783448 5450.104345 11944.629715 5434.565243 12024.519834 5571.192066 C 12104.116239 5707.5257 11980.756497 5995.438878 11918.782912 6232.043699 C 11857.10304 6468.648521 11857.10304 6653.944985 11900.866378 6785.294378 C 11944.629715 6916.35058 12032.15639 6993.459711 12034.799813 7127.154628 C 12037.149522 7261.142737 11954.909694 7451.423442 11779.856344 7518.270901 C 11605.096709 7585.11836 11337.523553 7528.532572 11129.280559 7433.245624 C 10920.743851 7338.251867 10771.831019 7204.556949 10846.434292 7176.11746 C 10920.743851 7147.971162 11219.156943 7225.080292 11435.330206 7335.613151 C 11651.503469 7446.146011 11785.143191 7590.39579 11839.186506 7729.074949 C 11893.229822 7868.047297 11867.383019 8001.742215 11836.543083 8019.920033 C 11805.703148 8037.80466 11769.576366 7940.172187 11700.259939 7921.994369 C 11630.649799 7904.109742 11528.143727 7965.972961 11383.930313 7875.963444 C 11240.010614 7785.660736 11054.677286 7544.071674 10869.343958 7302.189422" stroke="#231F20" stroke-width="48.738" stroke-miterlimit="22.926"/></g><g><g><g><path d="M 15.835938 2.617188 C 16.019531 2.617188 16.199219 2.4375 16.199219 2.253906 C 16.199219 2.191406 16.199219 2.132812 16.140625 2.070312 C 15.835938 1.460938 17.359375 -1.15625 21.257812 -6.273438 C 24.242188 -6.210938 27.53125 -6.03125 31.246094 -5.785156 C 31.425781 -5.785156 31.609375 -5.96875 31.609375 -6.152344 C 31.609375 -6.335938 31.425781 -6.457031 31.246094 -6.515625 C 27.773438 -6.699219 24.667969 -6.882812 21.804688 -7.003906 C 23.144531 -8.769531 24.789062 -10.839844 26.675781 -13.277344 C 29.175781 -16.324219 31.183594 -18.882812 31.425781 -19.550781 C 31.671875 -20.222656 31.425781 -20.648438 30.757812 -20.648438 C 27.835938 -20.648438 16.992188 -13.519531 8.34375 -6.941406 C 4.75 -6.761719 1.886719 -6.394531 -0.425781 -5.90625 C -0.609375 -5.847656 -0.730469 -5.726562 -0.730469 -5.542969 C -0.730469 -5.359375 -0.546875 -5.175781 -0.367188 -5.175781 L -0.304688 -5.175781 C 1.765625 -5.664062 4.261719 -5.96875 7.308594 -6.152344 C 4.507812 -4.019531 2.011719 -1.949219 0.121094 -0.242188 C 0.0625 -0.183594 0 -0.121094 0 0 C 0 0.183594 0.183594 0.367188 0.367188 0.367188 C 0.425781 0.367188 0.546875 0.304688 0.609375 0.242188 C 2.617188 -1.582031 5.480469 -3.898438 8.585938 -6.273438 C 11.875 -6.457031 15.714844 -6.457031 20.402344 -6.335938 C 16.445312 -1.15625 14.984375 1.460938 15.53125 2.4375 C 15.59375 2.558594 15.714844 2.617188 15.835938 2.617188 Z M 9.5625 -7.003906 C 17.96875 -13.339844 28.078125 -19.976562 30.757812 -19.976562 C 30.878906 -19.976562 30.878906 -20.097656 30.757812 -19.792969 C 30.574219 -19.246094 28.625 -16.808594 26.128906 -13.703125 L 20.890625 -7.003906 C 16.445312 -7.125 12.730469 -7.125 9.5625 -7.003906 Z M 9.5625 -7.003906" transform="translate(80.925 283.012)"/></g></g></g><g><g><g><path d="M -1.644531 0.972656 C -1.402344 0.972656 -1.097656 0.609375 -0.671875 0.242188 C 0.121094 -0.488281 1.460938 -1.707031 2.921875 -2.800781 C 5.421875 -4.628906 7.125 -5.601562 7.980469 -5.601562 C 8.285156 -5.601562 8.464844 -5.542969 8.464844 -5.238281 C 8.464844 -4.386719 7.734375 -3.226562 6.761719 -2.253906 L 6.457031 -2.253906 C 3.410156 -1.828125 1.949219 -1.582031 1.949219 -0.671875 C 1.949219 0 2.496094 0.425781 3.226562 0.425781 C 4.445312 0.425781 5.90625 -0.488281 7.125 -1.644531 C 10.355469 -2.070312 14.617188 -2.679688 17.84375 -4.691406 C 17.90625 -4.75 17.96875 -4.871094 17.96875 -4.996094 C 17.96875 -5.175781 17.84375 -5.296875 17.664062 -5.296875 L 17.480469 -5.296875 C 14.617188 -3.53125 10.902344 -2.863281 7.855469 -2.4375 C 8.648438 -3.351562 9.136719 -4.386719 9.136719 -5.238281 C 9.136719 -5.90625 8.769531 -6.335938 8.101562 -6.335938 C 7.003906 -6.335938 5.175781 -5.296875 2.558594 -3.351562 C 0.972656 -2.253906 -0.367188 -1.035156 -0.609375 -0.792969 C -1.097656 -0.367188 -1.21875 -0.367188 -0.972656 -0.851562 C -0.425781 -1.828125 0.488281 -3.226562 1.644531 -4.8125 C 14.3125 -13.035156 26.492188 -26.859375 26.492188 -29.90625 C 26.492188 -30.574219 26.128906 -30.941406 25.457031 -30.941406 C 22.902344 -30.941406 7.980469 -14.617188 1.21875 -5.359375 L 1.15625 -5.296875 C -0.851562 -2.558594 -2.132812 -0.367188 -2.132812 0.488281 C -2.132812 0.730469 -1.949219 0.972656 -1.644531 0.972656 Z M 2.921875 -6.515625 C 10.050781 -15.714844 23.328125 -30.210938 25.457031 -30.210938 C 25.761719 -30.210938 25.824219 -30.148438 25.824219 -29.90625 C 25.824219 -27.226562 14.859375 -14.738281 2.921875 -6.515625 Z M 3.226562 -0.304688 C 2.863281 -0.304688 2.679688 -0.425781 2.679688 -0.671875 C 2.679688 -0.851562 3.472656 -1.097656 5.847656 -1.460938 C 4.996094 -0.730469 4.019531 -0.304688 3.226562 -0.304688 Z M 3.226562 -0.304688" transform="translate(109.55 283.012)"/></g></g></g><g><g><g><path d="M -3.714844 3.65625 C -3.472656 3.65625 -2.742188 2.921875 -1.828125 1.949219 C -1.035156 1.21875 0 0.242188 1.035156 -0.792969 C 4.386719 -3.957031 6.761719 -5.664062 7.734375 -5.664062 C 7.855469 -5.664062 7.917969 -5.601562 7.917969 -5.421875 C 7.917969 -4.996094 7.613281 -4.324219 7.371094 -3.65625 C 7.066406 -2.921875 6.761719 -2.132812 6.761719 -1.460938 C 6.761719 -0.367188 7.492188 0.304688 8.769531 0.304688 C 11.632812 0.304688 17.664062 -2.617188 20.828125 -4.691406 C 20.953125 -4.75 21.011719 -4.871094 21.011719 -4.996094 C 21.011719 -5.175781 20.828125 -5.296875 20.648438 -5.296875 L 20.464844 -5.296875 C 17.296875 -3.226562 11.449219 -0.425781 8.769531 -0.425781 C 7.855469 -0.425781 7.429688 -0.730469 7.429688 -1.460938 C 7.429688 -1.949219 7.734375 -2.617188 7.980469 -3.351562 C 8.285156 -4.082031 8.585938 -4.8125 8.585938 -5.421875 C 8.585938 -6.03125 8.285156 -6.335938 7.734375 -6.335938 C 6.457031 -6.335938 4.082031 -4.628906 0.546875 -1.277344 C -0.488281 -0.304688 -1.523438 0.671875 -2.3125 1.460938 C -2.921875 2.132812 -3.226562 2.191406 -2.742188 1.339844 C -1.828125 -0.121094 -0.304688 -2.253906 1.644531 -4.75 C 14.679688 -12.972656 26.921875 -26.859375 26.921875 -29.90625 C 26.921875 -30.574219 26.554688 -30.941406 25.886719 -30.941406 C 22.535156 -30.941406 -4.203125 -0.609375 -4.203125 3.167969 C -4.203125 3.472656 -4.019531 3.65625 -3.714844 3.65625 Z M 3.046875 -6.457031 C 11.085938 -16.382812 23.9375 -30.210938 25.886719 -30.210938 C 26.191406 -30.210938 26.25 -30.148438 26.25 -29.90625 C 26.25 -27.226562 15.289062 -14.738281 3.046875 -6.457031 Z M 3.046875 -6.457031" transform="translate(125.81 283.012)"/></g></g></g><g><g><g><path d="M 8.222656 0.0625 C 10.355469 0.0625 15.957031 -2.253906 19.367188 -4.691406 C 19.429688 -4.75 19.488281 -4.871094 19.488281 -4.996094 C 19.488281 -5.175781 19.367188 -5.296875 19.183594 -5.296875 C 19.0625 -5.296875 19.003906 -5.296875 18.941406 -5.238281 C 15.53125 -2.679688 10.109375 -0.671875 8.222656 -0.671875 C 7.1875 -0.671875 6.699219 -0.972656 6.699219 -1.765625 C 6.699219 -2.921875 7.675781 -4.386719 8.40625 -5.421875 C 8.832031 -6.03125 9.074219 -6.394531 9.074219 -6.640625 C 9.074219 -6.882812 8.890625 -7.066406 8.648438 -7.066406 C 8.34375 -7.066406 7.613281 -6.578125 6.335938 -5.601562 C 5.96875 -6.273438 5.542969 -6.515625 4.628906 -6.515625 C 2.558594 -6.515625 -2.921875 -3.105469 -2.921875 -1.035156 C -2.921875 -0.425781 -2.496094 -0.0625 -1.828125 -0.0625 C -0.121094 -0.0625 3.65625 -2.863281 6.210938 -4.691406 C 6.699219 -5.054688 7.125 -5.359375 7.429688 -5.542969 C 7.550781 -5.664062 7.734375 -5.601562 7.550781 -5.421875 C 6.820312 -4.324219 6.03125 -2.984375 6.03125 -1.765625 C 6.03125 -0.546875 6.761719 0.0625 8.222656 0.0625 Z M -1.828125 -0.792969 C -2.132812 -0.792969 -2.253906 -0.851562 -2.253906 -1.035156 C -2.253906 -2.496094 2.558594 -5.847656 4.628906 -5.847656 C 5.296875 -5.847656 5.480469 -5.726562 5.726562 -5.238281 C 3.226562 -3.351562 -0.367188 -0.792969 -1.828125 -0.792969 Z M -1.828125 -0.792969" transform="translate(145.055 283.012)"/></g></g></g><g><g><g><path d="M -20.707031 24.910156 C -16.628906 24.910156 -5.238281 15.59375 2.617188 6.941406 C 3.53125 5.90625 4.445312 4.871094 5.238281 3.777344 C 10.902344 0.425781 15.773438 -2.863281 18.453125 -4.628906 C 18.515625 -4.691406 18.578125 -4.8125 18.578125 -4.933594 C 18.578125 -5.117188 18.394531 -5.238281 18.210938 -5.238281 C 18.148438 -5.238281 18.089844 -5.238281 18.027344 -5.175781 C 15.164062 -3.167969 11.390625 -0.671875 6.273438 2.3125 C 9.136719 -1.644531 10.902344 -5.296875 10.902344 -6.273438 C 10.902344 -6.761719 10.660156 -7.066406 10.171875 -7.066406 C 9.746094 -7.066406 8.953125 -6.515625 6.457031 -4.691406 C 3.898438 -2.742188 0.730469 -0.367188 -0.546875 -0.367188 C -0.851562 -0.367188 -0.914062 -0.425781 -0.914062 -0.609375 C -0.914062 -1.523438 1.707031 -5.054688 3.53125 -6.640625 C 3.59375 -6.699219 3.65625 -6.761719 3.65625 -6.882812 C 3.65625 -7.066406 3.472656 -7.246094 3.289062 -7.246094 C 3.226562 -7.246094 3.167969 -7.1875 3.105469 -7.1875 C 1.460938 -5.785156 -1.644531 -1.949219 -1.644531 -0.609375 C -1.644531 0 -1.21875 0.367188 -0.546875 0.367188 C 0.972656 0.367188 4.324219 -2.191406 6.941406 -4.082031 C 8.527344 -5.296875 9.378906 -5.96875 9.867188 -6.210938 C 10.050781 -6.335938 10.171875 -6.210938 10.171875 -6.03125 C 9.746094 -4.140625 6.699219 0.671875 4.75 3.226562 L 4.324219 3.472656 L -5.117188 9.136719 C -16.808594 16.382812 -22.167969 20.769531 -22.167969 23.507812 C -22.167969 24.363281 -21.5625 24.910156 -20.707031 24.910156 Z M -20.707031 24.179688 C -21.195312 24.179688 -21.4375 23.9375 -21.4375 23.507812 C -21.4375 21.132812 -16.078125 16.75 -4.75 9.746094 C -2.011719 8.039062 0.851562 6.394531 3.59375 4.75 L 2.132812 6.457031 C -6.335938 15.835938 -17.113281 24.179688 -20.707031 24.179688 Z M -20.707031 24.179688" transform="translate(162.838 283.012)"/></g></g></g><g><g><g><path d="M -0.972656 4.871094 C -0.851562 4.871094 -0.730469 4.8125 -0.671875 4.691406 C -0.304688 4.019531 0.0625 3.351562 0.546875 2.679688 C 1.402344 3.046875 2.679688 3.226562 4.203125 3.226562 C 10.476562 3.226562 18.332031 0.488281 20.769531 -3.957031 C 20.828125 -4.019531 20.890625 -4.019531 20.953125 -4.019531 C 21.742188 -3.835938 22.535156 -3.65625 23.265625 -3.351562 L 23.386719 -3.351562 C 23.570312 -3.351562 23.753906 -3.53125 23.753906 -3.714844 C 23.753906 -3.835938 23.632812 -3.957031 23.507812 -4.019531 C 22.777344 -4.261719 22.046875 -4.507812 21.257812 -4.691406 C 21.195312 -4.691406 21.132812 -4.75 21.195312 -4.871094 C 21.4375 -5.480469 21.5625 -6.152344 21.5625 -6.820312 C 21.5625 -8.160156 21.011719 -9.136719 19.855469 -9.746094 C 19.792969 -9.804688 19.792969 -9.867188 19.917969 -9.925781 C 23.9375 -11.753906 27.710938 -14.554688 27.710938 -17.539062 C 27.710938 -19.550781 25.640625 -20.523438 21.5 -20.523438 C 13.035156 -20.523438 3.59375 -14.800781 0.367188 -10.902344 C 0.304688 -10.839844 0.242188 -10.71875 0.242188 -10.660156 C 0.242188 -10.476562 0.425781 -10.292969 0.609375 -10.292969 C 0.730469 -10.292969 0.851562 -10.355469 0.914062 -10.414062 C 4.019531 -14.253906 13.214844 -19.855469 21.5 -19.855469 C 25.214844 -19.855469 26.980469 -19.0625 26.980469 -17.539062 C 26.980469 -14.679688 23.023438 -11.875 18.941406 -10.230469 C 18.882812 -10.171875 18.820312 -10.171875 18.757812 -10.230469 C 17.96875 -10.414062 16.992188 -10.535156 15.957031 -10.535156 C 13.15625 -10.535156 10.964844 -9.804688 10.902344 -8.769531 C 10.839844 -8.222656 11.449219 -7.855469 12.121094 -7.855469 C 13.824219 -7.855469 16.261719 -8.464844 18.699219 -9.441406 L 18.882812 -9.441406 C 20.222656 -8.953125 20.828125 -8.101562 20.828125 -6.820312 C 20.828125 -6.152344 20.707031 -5.542969 20.523438 -4.996094 C 20.464844 -4.871094 20.402344 -4.871094 20.34375 -4.871094 C 18.636719 -5.175781 16.808594 -5.359375 14.921875 -5.359375 C 11.632812 -5.359375 8.222656 -4.8125 5.421875 -4.019531 C 10.414062 -10.050781 16.324219 -15.894531 19.0625 -17.539062 C 19.183594 -17.601562 19.246094 -17.722656 19.246094 -17.84375 C 19.246094 -18.027344 19.125 -18.148438 18.882812 -18.148438 L 18.699219 -18.148438 C 15.835938 -16.382812 9.378906 -10.050781 4.203125 -3.59375 C 1.035156 -2.496094 -1.097656 -0.972656 -1.097656 0.546875 C -1.097656 1.277344 -0.730469 1.886719 -0.0625 2.3125 C -0.546875 3.046875 -0.914062 3.714844 -1.277344 4.324219 C -1.339844 4.386719 -1.339844 4.445312 -1.339844 4.507812 C -1.339844 4.691406 -1.21875 4.871094 -0.972656 4.871094 Z M 12.121094 -8.464844 C 11.816406 -8.464844 11.570312 -8.527344 11.570312 -8.710938 C 11.632812 -9.195312 13.703125 -9.867188 15.957031 -9.867188 C 16.566406 -9.867188 17.113281 -9.804688 17.664062 -9.746094 C 15.59375 -9.015625 13.519531 -8.464844 12.121094 -8.464844 Z M 4.203125 2.558594 C 2.800781 2.558594 1.707031 2.375 0.914062 2.070312 C 2.011719 0.425781 3.289062 -1.277344 4.628906 -2.984375 C 7.550781 -3.957031 11.328125 -4.691406 14.921875 -4.691406 C 16.6875 -4.691406 18.394531 -4.507812 19.976562 -4.203125 C 20.097656 -4.203125 20.097656 -4.140625 20.039062 -4.082031 C 17.664062 0 10.292969 2.558594 4.203125 2.558594 Z M 0.367188 1.707031 C -1.523438 0.425781 0.183594 -1.21875 3.410156 -2.496094 C 2.253906 -1.097656 1.21875 0.304688 0.367188 1.707031 Z M 0.367188 1.707031" transform="translate(193.229 283.012)"/></g></g></g><g><g><g><path d="M -3.714844 3.65625 C -3.472656 3.65625 -2.742188 2.921875 -1.828125 1.949219 C -1.035156 1.21875 0 0.242188 1.035156 -0.792969 C 4.386719 -3.957031 6.761719 -5.664062 7.734375 -5.664062 C 7.855469 -5.664062 7.917969 -5.601562 7.917969 -5.421875 C 7.917969 -4.996094 7.613281 -4.324219 7.371094 -3.65625 C 7.066406 -2.921875 6.761719 -2.132812 6.761719 -1.460938 C 6.761719 -0.367188 7.492188 0.304688 8.769531 0.304688 C 11.632812 0.304688 17.664062 -2.617188 20.828125 -4.691406 C 20.953125 -4.75 21.011719 -4.871094 21.011719 -4.996094 C 21.011719 -5.175781 20.828125 -5.296875 20.648438 -5.296875 L 20.464844 -5.296875 C 17.296875 -3.226562 11.449219 -0.425781 8.769531 -0.425781 C 7.855469 -0.425781 7.429688 -0.730469 7.429688 -1.460938 C 7.429688 -1.949219 7.734375 -2.617188 7.980469 -3.351562 C 8.285156 -4.082031 8.585938 -4.8125 8.585938 -5.421875 C 8.585938 -6.03125 8.285156 -6.335938 7.734375 -6.335938 C 6.457031 -6.335938 4.082031 -4.628906 0.546875 -1.277344 C -0.488281 -0.304688 -1.523438 0.671875 -2.3125 1.460938 C -2.921875 2.132812 -3.226562 2.191406 -2.742188 1.339844 C -1.828125 -0.121094 -0.304688 -2.253906 1.644531 -4.75 C 14.679688 -12.972656 26.921875 -26.859375 26.921875 -29.90625 C 26.921875 -30.574219 26.554688 -30.941406 25.886719 -30.941406 C 22.535156 -30.941406 -4.203125 -0.609375 -4.203125 3.167969 C -4.203125 3.472656 -4.019531 3.65625 -3.714844 3.65625 Z M 3.046875 -6.457031 C 11.085938 -16.382812 23.9375 -30.210938 25.886719 -30.210938 C 26.191406 -30.210938 26.25 -30.148438 26.25 -29.90625 C 26.25 -27.226562 15.289062 -14.738281 3.046875 -6.457031 Z M 3.046875 -6.457031" transform="translate(219.538 283.012)"/></g></g></g><g><g><g><path d="M 8.222656 0.0625 C 10.355469 0.0625 15.957031 -2.253906 19.367188 -4.691406 C 19.429688 -4.75 19.488281 -4.871094 19.488281 -4.996094 C 19.488281 -5.175781 19.367188 -5.296875 19.183594 -5.296875 C 19.0625 -5.296875 19.003906 -5.296875 18.941406 -5.238281 C 15.53125 -2.679688 10.109375 -0.671875 8.222656 -0.671875 C 7.1875 -0.671875 6.699219 -0.972656 6.699219 -1.765625 C 6.699219 -2.921875 7.675781 -4.386719 8.40625 -5.421875 C 8.832031 -6.03125 9.074219 -6.394531 9.074219 -6.640625 C 9.074219 -6.882812 8.890625 -7.066406 8.648438 -7.066406 C 8.34375 -7.066406 7.613281 -6.578125 6.335938 -5.601562 C 5.96875 -6.273438 5.542969 -6.515625 4.628906 -6.515625 C 2.558594 -6.515625 -2.921875 -3.105469 -2.921875 -1.035156 C -2.921875 -0.425781 -2.496094 -0.0625 -1.828125 -0.0625 C -0.121094 -0.0625 3.65625 -2.863281 6.210938 -4.691406 C 6.699219 -5.054688 7.125 -5.359375 7.429688 -5.542969 C 7.550781 -5.664062 7.734375 -5.601562 7.550781 -5.421875 C 6.820312 -4.324219 6.03125 -2.984375 6.03125 -1.765625 C 6.03125 -0.546875 6.761719 0.0625 8.222656 0.0625 Z M -1.828125 -0.792969 C -2.132812 -0.792969 -2.253906 -0.851562 -2.253906 -1.035156 C -2.253906 -2.496094 2.558594 -5.847656 4.628906 -5.847656 C 5.296875 -5.847656 5.480469 -5.726562 5.726562 -5.238281 C 3.226562 -3.351562 -0.367188 -0.792969 -1.828125 -0.792969 Z M -1.828125 -0.792969" transform="translate(238.783 283.012)"/></g></g></g><g><g><g><path d="M -12.851562 15.46875 C -12.546875 15.46875 -12.179688 14.984375 -11.875 14.496094 C -11.753906 14.3125 -11.753906 14.128906 -11.875 14.070312 C -6.089844 4.996094 1.277344 -4.507812 8.832031 -13.339844 C 14.128906 -13.582031 19.550781 -13.582031 24.726562 -13.398438 C 24.972656 -13.398438 25.09375 -13.519531 25.09375 -13.703125 C 25.09375 -13.886719 24.972656 -14.070312 24.789062 -14.070312 C 19.734375 -14.253906 14.554688 -14.253906 9.5 -14.070312 C 12.789062 -17.90625 16.078125 -21.621094 19.367188 -25.152344 C 19.429688 -25.214844 19.429688 -25.335938 19.429688 -25.398438 C 19.429688 -25.582031 19.308594 -25.761719 19.0625 -25.761719 C 19.003906 -25.761719 18.882812 -25.703125 18.820312 -25.640625 C 15.410156 -21.925781 11.9375 -18.027344 8.527344 -14.007812 C 3.046875 -13.824219 -2.253906 -13.398438 -7.003906 -12.789062 C -7.1875 -12.730469 -7.308594 -12.609375 -7.308594 -12.425781 C -7.308594 -12.242188 -7.125 -12.058594 -6.941406 -12.058594 L -6.882812 -12.058594 C -2.375 -12.667969 2.679688 -13.09375 7.917969 -13.339844 C 0.242188 -4.324219 -7.125 5.238281 -12.972656 14.433594 C -13.035156 14.554688 -13.09375 14.679688 -13.15625 14.800781 L -13.214844 14.859375 C -13.339844 15.226562 -13.277344 15.46875 -12.851562 15.46875 Z M -12.851562 15.46875" transform="translate(256.567 283.012)"/></g></g></g><g><g><g><path d="M 4.386719 -7.855469 C 4.507812 -7.855469 4.566406 -7.855469 4.628906 -7.980469 L 4.871094 -8.222656 C 5.054688 -8.527344 5.296875 -8.832031 5.421875 -8.953125 C 5.480469 -9.015625 5.480469 -9.136719 5.480469 -9.195312 C 5.480469 -9.378906 5.359375 -9.5625 5.175781 -9.5625 C 5.054688 -9.5625 4.933594 -9.5 4.871094 -9.441406 C 4.75 -9.257812 4.507812 -8.890625 4.324219 -8.648438 L 4.082031 -8.40625 C 4.019531 -8.34375 4.019531 -8.285156 4.019531 -8.160156 C 4.019531 -7.980469 4.203125 -7.855469 4.386719 -7.855469 Z M 0.488281 0.367188 C 2.558594 0.367188 8.953125 -2.617188 12.242188 -4.691406 C 12.304688 -4.75 12.363281 -4.871094 12.363281 -4.996094 C 12.363281 -5.175781 12.242188 -5.296875 12 -5.296875 L 11.816406 -5.296875 C 8.648438 -3.226562 2.375 -0.367188 0.488281 -0.367188 C -0.183594 -0.367188 -0.488281 -0.609375 -0.488281 -1.21875 C -0.488281 -2.070312 0.972656 -4.140625 3.046875 -6.273438 C 3.105469 -6.335938 3.167969 -6.394531 3.167969 -6.515625 C 3.167969 -6.699219 2.984375 -6.820312 2.800781 -6.820312 C 2.679688 -6.820312 2.617188 -6.820312 2.558594 -6.761719 C 0.304688 -4.445312 -1.15625 -2.375 -1.15625 -1.21875 C -1.15625 -0.242188 -0.546875 0.367188 0.488281 0.367188 Z M 0.488281 0.367188" transform="translate(265.641 283.012)"/></g></g></g><g><g><g><path d="M 8.222656 0.0625 C 10.355469 0.0625 15.957031 -2.253906 19.367188 -4.691406 C 19.429688 -4.75 19.488281 -4.871094 19.488281 -4.996094 C 19.488281 -5.175781 19.367188 -5.296875 19.183594 -5.296875 C 19.0625 -5.296875 19.003906 -5.296875 18.941406 -5.238281 C 15.53125 -2.679688 10.109375 -0.671875 8.222656 -0.671875 C 7.1875 -0.671875 6.699219 -0.972656 6.699219 -1.765625 C 6.699219 -2.921875 7.675781 -4.386719 8.40625 -5.421875 C 8.832031 -6.03125 9.074219 -6.394531 9.074219 -6.640625 C 9.074219 -6.882812 8.890625 -7.066406 8.648438 -7.066406 C 8.34375 -7.066406 7.613281 -6.578125 6.335938 -5.601562 C 5.96875 -6.273438 5.542969 -6.515625 4.628906 -6.515625 C 2.558594 -6.515625 -2.921875 -3.105469 -2.921875 -1.035156 C -2.921875 -0.425781 -2.496094 -0.0625 -1.828125 -0.0625 C -0.121094 -0.0625 3.65625 -2.863281 6.210938 -4.691406 C 6.699219 -5.054688 7.125 -5.359375 7.429688 -5.542969 C 7.550781 -5.664062 7.734375 -5.601562 7.550781 -5.421875 C 6.820312 -4.324219 6.03125 -2.984375 6.03125 -1.765625 C 6.03125 -0.546875 6.761719 0.0625 8.222656 0.0625 Z M -1.828125 -0.792969 C -2.132812 -0.792969 -2.253906 -0.851562 -2.253906 -1.035156 C -2.253906 -2.496094 2.558594 -5.847656 4.628906 -5.847656 C 5.296875 -5.847656 5.480469 -5.726562 5.726562 -5.238281 C 3.226562 -3.351562 -0.367188 -0.792969 -1.828125 -0.792969 Z M -1.828125 -0.792969" transform="translate(276.3 283.012)"/></g></g></g><g><g><g><path d="M 1.84375 3.277344 L 1.84375 -0.640625 C 2.773438 0 3.765625 0.292969 4.695312 0.292969 C 7.390625 0.292969 9.757812 -2.09375 9.757812 -5.78125 C 9.757812 -9.644531 7.644531 -11.484375 5.453125 -11.484375 C 4.113281 -11.484375 2.773438 -10.808594 1.84375 -9.507812 L 1.84375 -11.214844 L 1.066406 -11.214844 L 1.066406 3.277344 Z M 4.675781 0.0976562 C 3.785156 0.0976562 2.8125 -0.214844 1.84375 -0.875 L 1.84375 -9.3125 C 2.734375 -10.554688 4.015625 -11.234375 5.257812 -11.234375 C 7.21875 -11.234375 9.0625 -9.566406 9.0625 -5.78125 C 9.0625 -2.230469 7.140625 0.0976562 4.675781 0.0976562 Z M 4.675781 0.0976562" transform="translate(178.99 314.07)"/></g></g></g><g><g><g><path d="M 5.605469 0.328125 C 8.59375 0.328125 10.417969 -2.25 10.417969 -5.625 C 10.417969 -9.003906 8.59375 -11.542969 5.605469 -11.542969 C 2.40625 -11.542969 0.777344 -9.003906 0.777344 -5.625 C 0.777344 -2.25 2.40625 0.328125 5.605469 0.328125 Z M 5.605469 0.136719 C 2.792969 0.136719 1.550781 -2.386719 1.550781 -5.625 C 1.550781 -8.828125 2.792969 -11.351562 5.605469 -11.351562 C 8.207031 -11.351562 9.644531 -8.828125 9.644531 -5.625 C 9.644531 -2.386719 8.207031 0.136719 5.605469 0.136719 Z M 5.605469 0.136719" transform="translate(193.889 314.07)"/></g></g></g><g><g><g><path d="M 1.84375 0 L 1.84375 -4.773438 C 2.949219 -9.253906 5.0625 -11.71875 7.625 -10.4375 L 7.820312 -11.214844 C 5.023438 -11.894531 2.988281 -9.777344 1.863281 -5.355469 L 1.84375 -5.355469 L 1.84375 -11.214844 L 1.066406 -11.214844 L 1.066406 0 Z M 1.84375 0" transform="translate(209.446 314.07)"/></g></g></g><g><g><g><path d="M 4.753906 0.386719 C 6.015625 0.386719 7.316406 -0.328125 7.898438 -1.824219 L 7.488281 -2.308594 C 6.847656 -0.5625 5.625 0.234375 4.558594 0.234375 C 3.472656 0.234375 2.523438 -0.601562 2.523438 -2.152344 L 2.523438 -11.019531 L 5.625 -11.019531 L 5.625 -11.214844 L 2.523438 -11.214844 L 2.503906 -15.5625 L 2.308594 -15.5625 C 2.308594 -13.621094 2.210938 -12.476562 1.746094 -11.214844 L 0.582031 -11.214844 L 0.582031 -11.019531 L 1.746094 -11.019531 L 1.746094 -2.773438 C 1.746094 -0.699219 3.222656 0.386719 4.753906 0.386719 Z M 4.753906 0.386719" transform="translate(222.58 314.07)"/></g></g></g><g><g><g><path d="M 3.453125 0 L 3.453125 -11.019531 L 6.171875 -11.019531 L 6.171875 -11.214844 L 3.414062 -11.214844 C 2.675781 -12.417969 2.347656 -13.367188 2.347656 -14.066406 C 2.347656 -14.960938 2.890625 -15.425781 3.785156 -15.425781 C 4.636719 -15.425781 5.820312 -15 7.199219 -14.105469 L 7.390625 -14.882812 C 6.113281 -15.464844 5.0625 -15.714844 4.269531 -15.714844 C 2.734375 -15.714844 2.039062 -14.824219 2.039062 -13.640625 C 2.039062 -12.980469 2.25 -12.203125 2.675781 -11.449219 L 2.675781 -11.214844 L 0.347656 -11.214844 L 0.347656 -11.019531 L 2.675781 -11.019531 L 2.675781 0 Z M 3.453125 0" transform="translate(235.325 314.07)"/></g></g></g><g><g><g><path d="M 5.605469 0.328125 C 8.59375 0.328125 10.417969 -2.25 10.417969 -5.625 C 10.417969 -9.003906 8.59375 -11.542969 5.605469 -11.542969 C 2.40625 -11.542969 0.777344 -9.003906 0.777344 -5.625 C 0.777344 -2.25 2.40625 0.328125 5.605469 0.328125 Z M 5.605469 0.136719 C 2.792969 0.136719 1.550781 -2.386719 1.550781 -5.625 C 1.550781 -8.828125 2.792969 -11.351562 5.605469 -11.351562 C 8.207031 -11.351562 9.644531 -8.828125 9.644531 -5.625 C 9.644531 -2.386719 8.207031 0.136719 5.605469 0.136719 Z M 5.605469 0.136719" transform="translate(246.519 314.07)"/></g></g></g><g><g><g><path d="M 2.425781 0 L 2.425781 -13.621094 L 1.648438 -13.621094 L 1.648438 0 Z M 2.425781 0" transform="translate(262.076 314.07)"/></g></g></g><g><g><g><path d="M 1.628906 -12.824219 C 1.941406 -12.824219 2.191406 -13.078125 2.191406 -13.386719 C 2.191406 -13.699219 1.941406 -13.949219 1.628906 -13.949219 C 1.320312 -13.949219 1.066406 -13.699219 1.066406 -13.386719 C 1.066406 -13.078125 1.320312 -12.824219 1.628906 -12.824219 Z M 2.019531 0 L 2.019531 -11.214844 L 1.242188 -11.214844 L 1.242188 0 Z M 2.019531 0" transform="translate(270.42 314.07)"/></g></g></g><g><g><g><path d="M 5.605469 0.328125 C 8.59375 0.328125 10.417969 -2.25 10.417969 -5.625 C 10.417969 -9.003906 8.59375 -11.542969 5.605469 -11.542969 C 2.40625 -11.542969 0.777344 -9.003906 0.777344 -5.625 C 0.777344 -2.25 2.40625 0.328125 5.605469 0.328125 Z M 5.605469 0.136719 C 2.792969 0.136719 1.550781 -2.386719 1.550781 -5.625 C 1.550781 -8.828125 2.792969 -11.351562 5.605469 -11.351562 C 8.207031 -11.351562 9.644531 -8.828125 9.644531 -5.625 C 9.644531 -2.386719 8.207031 0.136719 5.605469 0.136719 Z M 5.605469 0.136719" transform="translate(278.141 314.07)"/></g></g></g></svg>