<svg width="164" height="35" viewBox="0 0 164 35" fill="none" xmlns="http://www.w3.org/2000/svg">
<path d="M13.6402 30.63L5.86733 8.395L2.98278 17.3401L7.66486 20.8925L8.49977 24.612L0 18.4238L6.11617 0L13.6402 22.3528L21.0824 0.327418L27.0153 18.928L18.5319 25.0704L19.4519 21.0595L23.9637 17.6315L20.9548 8.77153L13.6402 30.63Z" fill="#161C2D"/>
<path d="M41.1904 5.50684V8.24733H35.5916V11.0762H40.7877V13.8069H35.5916V18.9212H32.373V5.50684H41.1904Z" fill="#161C2D"/>
<path d="M56.0016 16.2723L54.967 13.8069L53.821 11.0762L52.6358 8.24733L51.4865 5.50684H48.1993L47.05 8.24733L45.8648 11.0762L44.7188 13.8069L43.6842 16.2723L42.5742 18.9212H46.2086L47.1417 16.2723H52.4164L53.3495 18.9212H57.1116L56.0016 16.2723ZM48.0061 13.8069L48.9687 11.0762L49.7807 8.76793L50.5894 11.0762L51.552 13.8069H48.0061Z" fill="#161C2D"/>
<path d="M81.5267 16.2723V18.9212H73.207V5.50684H76.3437V16.2723H81.5267Z" fill="#161C2D"/>
<path d="M113.294 5.50684V12.3859L111.873 13.8069L110.17 15.5095L109.408 16.2723L108.569 17.1105L108.039 16.2723L106.49 13.8069L104.771 11.0762L104.208 10.1791V18.9212H101.088V5.50684H104.709L106.435 8.24733L108.213 11.0762L109.928 13.8069L110.17 14.19V5.50684H113.294Z" fill="#161C2D"/>
<path d="M70.7061 17.2028C69.9039 17.9853 68.9118 18.578 67.8052 18.9218C67.1176 19.1346 66.3842 19.2492 65.6246 19.2492C64.8649 19.2492 64.1315 19.1346 63.444 18.9218C61.9313 18.4536 60.6314 17.5139 59.7343 16.273C59.2006 15.5428 58.8077 14.7079 58.5916 13.8075C58.4639 13.2869 58.3984 12.7434 58.3984 12.1835C58.3984 11.807 58.4279 11.437 58.4868 11.0768C58.6538 10.0422 59.05 9.08286 59.623 8.24794C60.4939 6.98411 61.7676 6.01167 63.2671 5.50744C64.0038 5.25533 64.7995 5.12109 65.6246 5.12109C66.4496 5.12109 67.2453 5.25533 67.982 5.50744C68.997 5.84796 69.9137 6.40785 70.6668 7.12162L68.4895 9.33824C68.0573 8.85039 67.5203 8.47059 66.9179 8.24794C66.5282 8.10388 66.1059 8.02529 65.6704 8.02529C65.2349 8.02529 64.8158 8.10388 64.4262 8.24794C63.2246 8.68668 62.2882 9.74751 61.9378 11.0768C61.8363 11.4501 61.7839 11.843 61.7839 12.2523C61.7839 12.8023 61.8789 13.3262 62.0557 13.8075C62.4813 14.9731 63.3654 15.8833 64.4688 16.273C64.8453 16.4072 65.2513 16.4792 65.6704 16.4792C66.0895 16.4792 66.4955 16.4072 66.872 16.273C67.5432 16.0372 68.1326 15.605 68.5877 15.0419L70.7061 17.2028Z" fill="#161C2D"/>
<path d="M97.8749 11.0768C97.7079 10.0422 97.3118 9.08286 96.7388 8.24794C95.8678 6.98411 94.5909 6.01167 93.0913 5.50744C92.3514 5.25533 91.559 5.12109 90.7339 5.12109C89.9088 5.12109 89.1165 5.25533 88.3765 5.50744C86.8769 6.01167 85.6033 6.98411 84.7324 8.24794C84.1594 9.08286 83.7632 10.0422 83.5962 11.0768C83.5373 11.437 83.5078 11.807 83.5078 12.1835C83.5078 12.7434 83.5733 13.2869 83.701 13.8075C83.9171 14.7079 84.31 15.5428 84.8437 16.273C85.7408 17.5139 87.0407 18.4536 88.5566 18.9218C89.2442 19.1346 89.9743 19.2492 90.7339 19.2492C91.4935 19.2492 92.2237 19.1346 92.9113 18.9218C94.4272 18.4536 95.7271 17.5139 96.6275 16.273C97.1611 15.5428 97.554 14.7079 97.7701 13.8075C97.8978 13.2869 97.9633 12.7434 97.9633 12.1835C97.9633 11.807 97.9339 11.437 97.8749 11.0768ZM94.3912 13.8075C93.9623 14.9731 93.0684 15.8833 91.9552 16.273C91.5721 16.4072 91.1628 16.4792 90.7405 16.4792C90.3181 16.4792 89.9088 16.4072 89.5258 16.273C88.4093 15.8833 87.5154 14.9731 87.0865 13.8075C86.9097 13.3262 86.8115 12.8023 86.8115 12.2523C86.8115 11.843 86.8638 11.4501 86.9686 11.0768C87.3222 9.74751 88.2685 8.68668 89.4832 8.24794C89.8794 8.10388 90.3017 8.02529 90.7405 8.02529C91.1825 8.02529 91.6049 8.10388 92.001 8.24794C93.2092 8.68996 94.1554 9.74751 94.5091 11.0768C94.6138 11.4501 94.6662 11.843 94.6662 12.2523C94.6662 12.8023 94.568 13.3262 94.3912 13.8075Z" fill="#161C2D"/>
<path d="M110.555 32.6404V33.6586H102.799V22.9128L104.2 21.5409V32.6404H110.555Z" fill="#161C2D"/>
<path d="M129.519 32.6406L128.455 30.1326L127.957 28.9637L127.181 27.1367L126.726 26.0661L124.614 21.1057L124.159 20.0317H122.676L122.221 21.1057L120.109 26.0661L119.654 27.1367L118.878 28.9637L118.38 30.1326L117.313 32.6406L116.881 33.6589H118.295L118.711 32.6406L119.739 30.1326H126.962L127.99 32.6406L128.406 33.6589H129.951L129.519 32.6406ZM120.217 28.9637L120.967 27.1367L121.406 26.0661L123.351 21.325L125.295 26.0661L125.734 27.1367L126.484 28.9637H120.217Z" fill="#161C2D"/>
<path d="M146.8 28.9637C146.561 28.2336 146.073 27.5984 145.421 27.1367C145.041 26.8682 144.603 26.6554 144.128 26.5212C144.416 26.4066 144.684 26.2527 144.927 26.0661C145.729 25.4472 146.246 24.4846 146.246 23.4009C146.246 22.5136 145.902 21.7081 145.336 21.1057C144.714 20.4443 143.83 20.0317 142.848 20.0317H137.789V33.6589H142.907C144 33.6589 144.989 33.2725 145.716 32.6406C146.456 32.0054 146.931 31.1181 146.967 30.1326C146.97 30.09 146.97 30.0475 146.97 30.0049C146.97 29.6447 146.911 29.2944 146.8 28.9637ZM139.082 21.1057H142.458C143.827 21.1057 144.937 22.2156 144.937 23.5842C144.937 24.9561 143.827 26.0661 142.458 26.0661H139.082V21.1057ZM139.082 32.6406V27.1367H142.821C144.056 27.1367 145.104 27.8996 145.493 28.9637C145.601 29.2518 145.66 29.5661 145.66 29.8903C145.66 29.9721 145.657 30.054 145.65 30.1326C145.523 31.5372 144.305 32.6406 142.821 32.6406H139.082Z" fill="#161C2D"/>
<path d="M163.84 30.1325V30.1521C163.84 31.0951 163.45 31.9627 162.802 32.6405C162.399 33.0629 161.898 33.4099 161.328 33.6588C160.687 33.9436 159.96 34.1041 159.187 34.1041C158.414 34.1041 157.687 33.9436 157.046 33.6588C156.476 33.4099 155.975 33.0629 155.572 32.6405C155.405 32.467 155.255 32.2803 155.127 32.0839L156.063 31.357C156.378 31.9005 156.895 32.3491 157.533 32.6405C158.048 32.8762 158.637 33.0105 159.269 33.0105C159.901 33.0105 160.493 32.8762 161.007 32.6405C162.081 32.1461 162.811 31.2097 162.828 30.1325V30.0965C162.828 29.6937 162.73 29.3139 162.546 28.9636C162.058 28.0174 160.975 27.3265 159.678 27.2054C159.583 27.1955 159.485 27.189 159.387 27.189C159.383 27.1857 159.377 27.1857 159.374 27.189C159.236 27.1759 159.099 27.1595 158.964 27.1366C158.352 27.0351 157.786 26.8288 157.291 26.544C157.049 26.4032 156.82 26.2428 156.613 26.0659C155.824 25.3882 155.34 24.4649 155.34 23.4466C155.34 22.5593 155.706 21.7473 156.319 21.1056C156.754 20.6505 157.314 20.2805 157.956 20.0316C158.532 19.809 159.174 19.6846 159.848 19.6846C160.523 19.6846 161.165 19.809 161.741 20.0316C162.383 20.2805 162.939 20.6505 163.375 21.1056C163.46 21.1907 163.538 21.2824 163.614 21.3773L162.536 22.2155C162.225 21.7342 161.744 21.3446 161.168 21.1056C160.762 20.9386 160.307 20.8436 159.825 20.8436C159.344 20.8436 158.889 20.9386 158.483 21.1056C157.432 21.541 156.708 22.4676 156.708 23.5416C156.708 24.6973 157.547 25.6796 158.725 26.0659C158.912 26.1282 159.112 26.174 159.315 26.2035C159.482 26.2264 159.652 26.2395 159.825 26.2395C159.829 26.2362 159.832 26.2395 159.835 26.2395C160.536 26.3213 161.187 26.5374 161.751 26.855C161.905 26.9402 162.055 27.0351 162.196 27.1366C162.857 27.6146 163.358 28.2433 163.623 28.9636C163.761 29.3303 163.836 29.7232 163.84 30.1325Z" fill="#161C2D"/>
</svg>
